<?xml version="1.0" standalone="no"?>
<!DOCTYPE svg PUBLIC "-//W3C//DTD SVG 20010904//EN"
 "http://www.w3.org/TR/2001/REC-SVG-20010904/DTD/svg10.dtd">
<svg version="1.0" xmlns="http://www.w3.org/2000/svg"
 width="700.000000pt" height="700.000000pt" viewBox="0 0 700.000000 700.000000"
 preserveAspectRatio="xMidYMid meet">
<metadata>
Created by potrace 1.11, written by Peter Selinger 2001-2013
</metadata>
<g transform="translate(0.000000,700.000000) scale(0.100000,-0.100000)"
fill="#000000" stroke="none">
<path d="M1057 6114 c-1 -1 -27 -4 -57 -7 -203 -20 -398 -185 -462 -391 l-22
-71 -2 -2130 c0 -1669 2 -2140 12 -2177 7 -27 11 -48 9 -48 -10 0 59 -137 87
-174 91 -118 227 -200 366 -220 59 -8 740 -11 2543 -10 2677 2 2505 -2 2630
53 156 69 277 222 313 396 17 83 16 4276 -2 4346 -56 222 -239 391 -460 425
-37 6 -4949 13 -4955 8z m1298 -399 c24 -23 25 -29 25 -154 0 -143 -9 -178
-49 -188 -39 -10 -1363 -10 -1394 0 -37 12 -49 38 -51 111 -4 122 30 197 106
235 43 21 49 21 691 21 l648 0 24 -25z m3656 2 c29 -15 54 -40 73 -71 l30 -47
-1 -452 c0 -249 -3 -464 -6 -478 -4 -14 -18 -31 -32 -37 -20 -9 -651 -12
-2585 -12 l-2559 0 -21 22 c-23 25 -22 7 -23 260 -2 223 2 254 39 268 15 6
341 10 833 10 l808 0 174 261 c95 144 184 270 198 280 23 18 66 19 1526 19
l1502 0 44 -23z m-2314 -1390 c5 -3 29 -8 53 -12 142 -20 346 -99 489 -188 36
-23 68 -44 71 -47 3 -3 21 -17 40 -30 84 -58 205 -184 287 -298 117 -163 203
-365 239 -557 19 -103 26 -334 13 -415 -5 -30 -11 -71 -14 -90 -30 -198 -128
-419 -266 -600 -107 -141 -276 -287 -434 -375 -118 -66 -311 -135 -425 -150
-25 -4 -64 -10 -87 -15 -47 -8 -339 -6 -363 3 -8 3 -33 9 -55 12 -188 27 -383
115 -605 272 -62 44 -193 176 -243 244 -17 24 -34 46 -37 49 -15 12 -101 161
-129 221 -47 102 -88 234 -109 352 -24 134 -23 369 2 495 76 380 288 697 606
907 249 165 500 236 812 230 81 -2 151 -5 155 -8z"/>
<path d="M3370 3958 c-30 -4 -77 -13 -105 -20 -27 -7 -52 -13 -55 -13 -23 -4
-97 -34 -155 -63 -210 -104 -370 -263 -475 -471 -31 -61 -57 -128 -65 -161 -2
-8 -8 -36 -14 -63 -20 -84 -24 -120 -25 -217 -3 -240 80 -475 232 -660 282
-341 748 -465 1157 -308 492 190 762 720 624 1228 -36 135 -127 304 -210 395
-21 22 -45 49 -56 61 -27 31 -121 106 -178 142 -196 123 -457 181 -675 150z
m213 -293 c105 -50 134 -185 60 -282 -32 -42 -72 -59 -167 -72 -92 -13 -153
-38 -214 -88 -79 -64 -125 -160 -135 -278 -6 -67 -19 -96 -59 -137 -97 -97
-261 -55 -305 77 -31 91 17 301 99 439 38 65 136 173 202 223 79 60 225 117
331 130 28 3 51 7 53 8 10 9 103 -5 135 -20z"/>
</g>
</svg>
